<?xml version="1.0" standalone="no"?>
<!DOCTYPE svg PUBLIC "-//W3C//DTD SVG 1.1//EN" "http://www.w3.org/Graphics/SVG/1.1/DTD/svg11.dtd">
<svg width="250px" height="75px" version="1.1" xmlns="http://www.w3.org/2000/svg" xmlns:xlink="http://www.w3.org/1999/xlink" xml:space="preserve" style="fill-rule:evenodd;clip-rule:evenodd;stroke-linejoin:round;stroke-miterlimit:1.41421;">
    <g>
        <g>
            <g>
                <g>
                    <path d="M173.916,0.306453C194.447,0.306453 211.09,16.9498 211.09,37.4804C211.09,58.011 194.447,74.6543 173.916,74.6543C153.386,74.6543 136.742,58.011 136.742,37.4804C136.742,16.9498 153.386,0.306453 173.916,0.306453ZM168.213,36.0731L168.213,33.8427L167.849,33.8427L167.849,46.3331L168.213,46.3331L168.213,39.8381L168.263,39.8381C168.841,41.444 170.247,42.3005 171.685,42.3005C173.901,42.3005 175.489,40.4448 175.489,37.9645C175.489,35.4307 173.951,33.5929 171.685,33.5929C170.247,33.5929 168.924,34.4493 168.263,36.0731L168.213,36.0731ZM164.972,39.0173C164.972,36.8582 163.401,36.1802 161.417,35.4843C159.962,34.9668 158.507,34.3244 158.507,32.3617C158.507,30.381 160.16,29.4175 161.731,29.4175C162.856,29.4175 163.864,29.8993 164.476,30.7379L164.757,30.4703C164.079,29.5602 162.938,29.0606 161.748,29.0606C159.797,29.0606 158.143,30.2561 158.143,32.3617C158.143,34.5029 159.499,35.2345 161.434,35.8947C162.988,36.43 164.608,37.0723 164.608,39.0173C164.608,40.9444 163.12,42.0507 161.4,42.0507C160.21,42.0507 159.052,41.5511 158.209,40.5875L157.928,40.8552C158.722,41.8009 159.962,42.4075 161.417,42.4075C163.335,42.4075 164.972,41.1763 164.972,39.0173ZM188.039,36.0017L188.006,36.0017C188.006,35.3951 187.973,34.3066 187.94,33.8427L187.576,33.8427C187.626,34.3066 187.659,35.3951 187.659,35.9125L187.659,42.0507L188.022,42.0507L188.022,37.8039C188.022,36.0017 188.833,33.9319 190.751,33.9319C190.8,33.9319 190.883,33.9319 190.966,33.9497L190.966,33.6107C190.866,33.5929 190.767,33.5929 190.668,33.5929C189.544,33.5929 188.469,34.3066 188.039,36.0017ZM175.125,37.9645C175.125,40.1236 173.785,41.9615 171.685,41.9615C169.668,41.9615 168.197,40.1236 168.197,37.9467C168.197,35.7519 169.668,33.9319 171.685,33.9319C173.785,33.9319 175.125,35.8055 175.125,37.9645ZM178.564,36.0017L178.564,28.561L178.2,28.561L178.2,42.0507L178.564,42.0507L178.564,37.9467C178.564,35.4307 179.92,33.9319 181.59,33.9319C183.508,33.9319 183.971,35.7698 183.971,37.1259L183.971,42.0507L184.335,42.0507L184.335,37.0902C184.335,35.3772 183.707,33.5929 181.59,33.5929C180.284,33.5929 179.044,34.4672 178.597,36.0017L178.564,36.0017Z" style="fill:white;"/>
                </g>
            </g>
        </g>
        <g>
            <path d="M15.7571,42.1617L15.7571,30.8337L15.1331,30.8337L10.2051,41.6497L5.27713,30.8337L4.65313,30.8337L4.65313,42.1617L5.00513,42.1617L5.00513,31.2337L5.05313,31.2337L10.0451,42.1617L10.3331,42.1617L15.3411,31.2337L15.4051,31.2337L15.4051,42.1617L15.7571,42.1617Z" style="fill:white;"/>
            <path d="M24.1411,40.4977L24.1411,37.2657C24.1411,35.4257 23.1011,34.5777 21.4211,34.5777C20.5891,34.5777 19.6611,34.8977 18.9891,35.4897L19.1811,35.7617C19.7731,35.2337 20.5571,34.8817 21.4211,34.8817C22.8291,34.8817 23.7891,35.6177 23.7891,37.2497L23.7891,37.8417L22.5091,37.8417C20.9731,37.8417 18.5091,38.1617 18.5091,40.2737C18.5091,41.7297 19.7731,42.3857 20.9731,42.3857C22.1571,42.3857 23.3411,41.7457 23.7571,40.4017L23.8051,40.4017C23.8051,40.8337 23.8691,41.7457 23.9331,42.1617L24.2691,42.1617C24.2051,41.7617 24.1411,41.0577 24.1411,40.4977ZM23.7891,38.8497C23.7891,40.2897 23.1651,42.0817 20.9731,42.0817C20.0611,42.0817 18.8611,41.6177 18.8611,40.2737C18.8611,38.4017 21.0211,38.1457 22.6531,38.1457L23.7891,38.1457L23.7891,38.8497Z" style="fill:white;"/>
            <path d="M33.6771,36.8017L33.6291,36.8017C32.9891,35.3457 31.7091,34.5777 30.3171,34.5777C28.1731,34.5777 26.6371,36.2737 26.6371,38.4977C26.6371,40.7217 28.1731,42.3857 30.3171,42.3857C31.7091,42.3857 32.9891,41.6177 33.6291,40.1777L33.6771,40.1777L33.6771,42.1617L34.0291,42.1617L34.0291,30.0657L33.6771,30.0657L33.6771,36.8017ZM26.9891,38.4977C26.9891,36.5617 28.2851,34.8817 30.3171,34.8817C32.2691,34.8817 33.6931,36.5137 33.6931,38.4817C33.6931,40.4337 32.2691,42.0817 30.3171,42.0817C28.2851,42.0817 26.9891,40.4337 26.9891,38.4977Z" style="fill:white;"/>
            <path d="M43.5651,38.4017L43.5651,38.0977C43.5651,36.3537 42.4611,34.5777 40.1571,34.5777C38.1891,34.5777 36.6531,36.1617 36.6531,38.4017C36.6531,40.7217 38.1411,42.3857 40.3171,42.3857C41.5811,42.3857 42.5571,41.8737 43.2771,40.9457L43.0211,40.7217C42.3651,41.5857 41.4531,42.0657 40.3171,42.0657C38.0611,42.0657 37.0051,40.1777 37.0051,38.4017L43.5651,38.4017ZM43.2291,38.0977L37.0211,38.0977C37.0211,36.9937 37.9171,34.8817 40.1411,34.8817C41.9651,34.8817 43.1811,36.1777 43.2291,38.0977Z" style="fill:white;"/>
            <path d="M59.1811,34.8017L58.8131,34.8017L56.7971,41.8097L56.7651,41.8097L54.3811,34.8017L53.8851,34.8017L51.5171,41.8097L51.4851,41.8097L49.4691,34.8017L49.1011,34.8017L51.2451,42.1617L51.7251,42.1617L54.1091,35.1857L54.1411,35.1857L56.5411,42.1617L57.0211,42.1617L59.1811,34.8017Z" style="fill:white;"/>
            <path d="M61.5331,32.0337C61.7091,32.0337 61.9011,31.8737 61.9011,31.6177C61.9011,31.3937 61.7251,31.2177 61.5331,31.2177C61.3411,31.2177 61.1651,31.3937 61.1651,31.6177C61.1651,31.8737 61.3411,32.0337 61.5331,32.0337ZM61.7091,42.1617L61.7091,34.8017L61.3571,34.8017L61.3571,42.1617L61.7091,42.1617Z" style="fill:white;"/>
            <path d="M67.8211,42.1777L67.7731,41.9057C67.5331,42.0017 67.2291,42.0497 66.9571,42.0497C66.1571,42.0497 65.6131,41.6337 65.6131,40.6417L65.6131,35.1057L67.7731,35.1057L67.7731,34.8017L65.6131,34.8017L65.6131,32.6417L65.2451,32.6417L65.2451,34.8017L63.6611,34.8017L63.6611,35.1057L65.2611,35.1057L65.2611,40.6417C65.2611,41.6177 65.7251,42.3537 66.8771,42.3537C67.1971,42.3537 67.5651,42.2737 67.8211,42.1777Z" style="fill:white;"/>
            <path d="M70.1891,36.7377L70.1891,30.0657L69.8371,30.0657L69.8371,42.1617L70.1891,42.1617L70.1891,38.4817C70.1891,36.2257 71.5011,34.8817 73.1171,34.8817C74.9731,34.8817 75.4211,36.5297 75.4211,37.7457L75.4211,42.1617L75.7731,42.1617L75.7731,37.7137C75.7731,36.1777 75.1651,34.5777 73.1171,34.5777C71.8531,34.5777 70.6531,35.3617 70.2211,36.7377L70.1891,36.7377Z" style="fill:white;"/>
            <rect x="82.9411" y="30.0657" width="0.352" height="12.096" style="fill:white;"/>
            <path d="M93.6131,38.4657C93.6131,36.1777 92.0291,34.5777 89.7571,34.5777C87.5011,34.5777 85.9171,36.1777 85.9171,38.4657C85.9171,40.7537 87.5011,42.3857 89.7571,42.3857C92.0291,42.3857 93.6131,40.7537 93.6131,38.4657ZM93.2611,38.4657C93.2611,40.4497 91.9171,42.0817 89.7571,42.0817C87.5971,42.0817 86.2691,40.4497 86.2691,38.4657C86.2691,36.4817 87.5971,34.8817 89.7571,34.8817C91.9171,34.8817 93.2611,36.4817 93.2611,38.4657Z" style="fill:white;"/>
            <path d="M101.165,34.8017L100.781,34.8017L98.1411,41.8097L98.1091,41.8097L95.3731,34.8017L94.9891,34.8017L97.8851,42.1617L98.3491,42.1617L101.165,34.8017Z" style="fill:white;"/>
            <path d="M109.453,38.4017L109.453,38.0977C109.453,36.3537 108.349,34.5777 106.045,34.5777C104.077,34.5777 102.541,36.1617 102.541,38.4017C102.541,40.7217 104.029,42.3857 106.205,42.3857C107.469,42.3857 108.445,41.8737 109.165,40.9457L108.909,40.7217C108.253,41.5857 107.341,42.0657 106.205,42.0657C103.949,42.0657 102.893,40.1777 102.893,38.4017L109.453,38.4017ZM109.117,38.0977L102.909,38.0977C102.909,36.9937 103.805,34.8817 106.029,34.8817C107.853,34.8817 109.069,36.1777 109.117,38.0977Z" style="fill:white;"/>
            <path d="M116.477,36.8017L116.429,36.8017L116.429,30.0657L116.077,30.0657L116.077,42.1617L116.429,42.1617L116.429,40.1777L116.477,40.1777C117.037,41.6177 118.397,42.3857 119.789,42.3857C121.933,42.3857 123.469,40.7217 123.469,38.4977C123.469,36.2257 121.981,34.5777 119.789,34.5777C118.397,34.5777 117.117,35.3457 116.477,36.8017ZM123.117,38.4977C123.117,40.4337 121.821,42.0817 119.789,42.0817C117.837,42.0817 116.413,40.4337 116.413,38.4817C116.413,36.5137 117.837,34.8817 119.789,34.8817C121.821,34.8817 123.117,36.5617 123.117,38.4977Z" style="fill:white;"/>
            <path d="M130.925,34.8017L130.541,34.8017L127.933,41.9697L125.229,34.8017L124.845,34.8017L127.757,42.3697L127.053,44.2897C126.813,44.9617 126.429,45.7137 125.533,45.7137C125.325,45.7137 125.069,45.6657 124.941,45.6177L124.845,45.9217C125.005,45.9857 125.309,46.0337 125.501,46.0337C126.397,46.0337 126.941,45.5057 127.277,44.5937L130.925,34.8017Z" style="fill:white;"/>
            <path d="M217.117,32.0337C217.293,32.0337 217.485,31.8737 217.485,31.6177C217.485,31.3937 217.309,31.2177 217.117,31.2177C216.925,31.2177 216.749,31.3937 216.749,31.6177C216.749,31.8737 216.925,32.0337 217.117,32.0337ZM217.293,42.1617L217.293,34.8017L216.941,34.8017L216.941,42.1617L217.293,42.1617Z" style="fill:white;"/>
            <path d="M220.973,36.7377L220.941,36.7377C220.941,36.1937 220.909,35.2177 220.877,34.8017L220.525,34.8017C220.573,35.2177 220.605,36.1937 220.605,36.6577L220.605,42.1617L220.957,42.1617L220.957,38.4817C220.957,36.2257 222.269,34.8817 223.885,34.8817C225.741,34.8817 226.189,36.5297 226.189,37.7457L226.189,42.1617L226.541,42.1617L226.541,37.7137C226.541,36.1777 225.933,34.5777 223.885,34.5777C222.621,34.5777 221.421,35.3617 220.973,36.7377Z" style="fill:white;"/>
            <path d="M240.045,39.4417C240.045,37.5057 238.525,36.8977 236.605,36.2737C235.197,35.8097 233.789,35.2337 233.789,33.4737C233.789,31.6977 235.389,30.8337 236.909,30.8337C237.997,30.8337 238.973,31.2657 239.565,32.0177L239.837,31.7777C239.181,30.9617 238.077,30.5137 236.925,30.5137C235.037,30.5137 233.437,31.5857 233.437,33.4737C233.437,35.3937 234.749,36.0497 236.621,36.6417C238.125,37.1217 239.693,37.6977 239.693,39.4417C239.693,41.1697 238.253,42.1617 236.589,42.1617C235.437,42.1617 234.317,41.7137 233.501,40.8497L233.229,41.0897C233.997,41.9377 235.197,42.4817 236.605,42.4817C238.461,42.4817 240.045,41.3777 240.045,39.4417Z" style="fill:white;"/>
            <path d="M249.357,31.1537L249.357,30.8337L242.893,30.8337L242.893,42.1617L243.245,42.1617L243.245,36.4497L248.925,36.4497L248.925,36.1297L243.245,36.1297L243.245,31.1537L249.357,31.1537Z" style="fill:white;"/>
        </g>
    </g>
</svg>
