<?xml version="1.0" encoding="utf-8"?>
<!-- Generator: Adobe Illustrator 17.1.0, SVG Export Plug-In . SVG Version: 6.00 Build 0)  -->
<!DOCTYPE svg PUBLIC "-//W3C//DTD SVG 1.1//EN" "http://www.w3.org/Graphics/SVG/1.1/DTD/svg11.dtd">
<svg version="1.1" id="Layer_1" xmlns="http://www.w3.org/2000/svg" xmlns:xlink="http://www.w3.org/1999/xlink" x="0px" y="0px"
	 viewBox="0 0 350 300" style="enable-background:new 0 0 350 300;" xml:space="preserve">
<style type="text/css">
	.st0{fill:#FFFFFF;}
	.st1{clip-path:url(#SVGID_4_);}
	.st2{fill:#EBEEF0;}
</style>
<g>
	
		<image style="overflow:visible;opacity:0.3;" width="363" height="297" xlink:href="8475AD4365BC20DA.png"  transform="matrix(1 0 0 1 -6 2)">
	</image>
	<g>
		<g>
			<g>
				<defs>
					<rect id="SVGID_1_" x="21" y="29" width="309" height="41"/>
				</defs>
				<clipPath id="SVGID_2_">
					<use xlink:href="#SVGID_1_"  style="overflow:visible;"/>
				</clipPath>
			</g>
		</g>
		<g>
			<g>
				<path class="st0" d="M323,268c0,2.2-1.8,4-4,4H28c-2.2,0-4-1.8-4-4V42c0-2.2,1.8-4,4-4h291c2.2,0,4,1.8,4,4V268z"/>
			</g>
			<g>
				<defs>
					<rect id="SVGID_3_" x="21" y="29" width="309" height="41"/>
				</defs>
				<clipPath id="SVGID_4_">
					<use xlink:href="#SVGID_3_"  style="overflow:visible;"/>
				</clipPath>
				<g class="st1">
					<g>
						<path class="st2" d="M323,268c0,2.2-1.8,4-4,4H28c-2.2,0-4-1.8-4-4V42c0-2.2,1.8-4,4-4h291c2.2,0,4,1.8,4,4V268z"/>
					</g>
					<g>
						<path class="st2" d="M185,37.9c2.3,2.3,2.3,6.2,0,8.5l-7.1,7.1c-2.3,2.3-6.2,2.3-8.5,0l-6.4-6.4c-2.3-2.3-2.3-6.2,0-8.5
							l7.1-7.1c2.3-2.3,6.2-2.3,8.5,0L185,37.9z"/>
					</g>
				</g>
			</g>
		</g>
		<g>
			<g>
				<defs>
					<rect id="SVGID_5_" x="21" y="29" width="309" height="41"/>
				</defs>
				<clipPath id="SVGID_6_">
					<use xlink:href="#SVGID_5_"  style="overflow:visible;"/>
				</clipPath>
			</g>
		</g>
	</g>
</g>
</svg>
