<?xml version="1.0" encoding="UTF-8" standalone="no"?>
<svg width="35px" height="29px" viewBox="0 0 35 29" version="1.1" xmlns="http://www.w3.org/2000/svg" xmlns:xlink="http://www.w3.org/1999/xlink" xmlns:sketch="http://www.bohemiancoding.com/sketch/ns">
    <!-- Generator: Sketch 3.0.3 (7891) - http://www.bohemiancoding.com/sketch -->
    <title>twitter-icon</title>
    <desc>Created with Sketch.</desc>
    <defs></defs>
    <g id="Welcome" stroke="none" stroke-width="1" fill="none" fill-rule="evenodd" sketch:type="MSPage">
        <g id="Desktop-HD-4" sketch:type="MSArtboardGroup" transform="translate(-702.000000, -799.000000)" fill="#FFFFFF">
            <path d="M719.397186,807.899055 C719.386253,807.649736 719.369622,807.401945 719.347424,807.155804 L719.349673,807.155416 C719.321932,806.902765 719.307692,806.646034 719.307692,806.385965 C719.307692,802.549039 722.407259,799.438596 726.230769,799.438596 C728.157429,799.438596 729.90027,800.22838 731.155339,801.502927 L731.155339,801.502927 C732.207076,801.419272 733.815322,801.037243 735.861178,799.778766 C735.861178,799.778766 735.337646,802.362745 732.677353,803.848013 C732.679514,803.853537 732.681668,803.859064 732.683816,803.864594 C734.104586,803.50015 734.779067,803.4493 737.003568,802.581346 C735.552085,804.62162 734.928437,805.410753 733.153194,806.289651 C733.153628,806.321704 733.153846,806.353809 733.153846,806.385965 C733.153846,806.529023 733.149537,806.671072 733.141043,806.811987 L733.141043,806.811987 C733.149555,807.054891 733.153846,807.298872 733.153846,807.54386 C733.153846,818.841474 724.027343,828 712.769231,828 C708.782184,828 705.062486,826.851325 701.920835,824.865763 C702.327815,824.896588 702.739005,824.912281 703.153846,824.912281 C706.845986,824.912281 710.266823,823.654109 713.008564,821.544577 C707.951061,821.770483 705.860051,817.352843 705.860051,816.540347 C707.509878,816.753307 708.828989,816.695826 708.828989,816.540347 C703.730769,814.656507 703.282865,810.890805 703.282865,809.157638 C704.652306,809.933902 706.358661,810.161184 706.52787,810.161184 C704.559908,809.184399 701.889761,805.182086 704.226187,800.409728 C710.773501,807.754238 717.486747,807.997888 719.397186,807.899055 Z" id="twitter-icon" sketch:type="MSShapeGroup"></path>
        </g>
    </g>
</svg>